<svg id="visual" viewBox="0 0 960 300" width="960" height="300" xmlns="http://www.w3.org/2000/svg" xmlns:xlink="http://www.w3.org/1999/xlink" version="1.1"><path d="M0 92L14.5 86.7C29 81.3 58 70.7 87.2 67.5C116.3 64.3 145.7 68.7 174.8 75C204 81.3 233 89.7 262 86.5C291 83.3 320 68.7 349 61.3C378 54 407 54 436.2 53C465.3 52 494.7 50 523.8 55.7C553 61.3 582 74.7 611 83.2C640 91.7 669 95.3 698 89C727 82.7 756 66.3 785.2 67C814.3 67.7 843.7 85.3 872.8 88.7C902 92 931 81 945.5 75.5L960 70L960 0L945.5 0C931 0 902 0 872.8 0C843.7 0 814.3 0 785.2 0C756 0 727 0 698 0C669 0 640 0 611 0C582 0 553 0 523.8 0C494.7 0 465.3 0 436.2 0C407 0 378 0 349 0C320 0 291 0 262 0C233 0 204 0 174.8 0C145.7 0 116.3 0 87.2 0C58 0 29 0 14.5 0L0 0Z" fill="#ffffff"></path><path d="M0 76L14.5 73.5C29 71 58 66 87.2 61.8C116.3 57.7 145.7 54.3 174.8 58.2C204 62 233 73 262 78.5C291 84 320 84 349 81.3C378 78.7 407 73.3 436.2 72C465.3 70.7 494.7 73.3 523.8 73.3C553 73.3 582 70.7 611 64.7C640 58.7 669 49.3 698 45C727 40.7 756 41.3 785.2 44.5C814.3 47.7 843.7 53.3 872.8 54.3C902 55.3 931 51.7 945.5 49.8L960 48L960 0L945.5 0C931 0 902 0 872.8 0C843.7 0 814.3 0 785.2 0C756 0 727 0 698 0C669 0 640 0 611 0C582 0 553 0 523.8 0C494.7 0 465.3 0 436.2 0C407 0 378 0 349 0C320 0 291 0 262 0C233 0 204 0 174.8 0C145.7 0 116.3 0 87.2 0C58 0 29 0 14.5 0L0 0Z" fill="#ffd8d0"></path><path d="M0 68L14.5 68C29 68 58 68 87.2 66.8C116.3 65.7 145.7 63.3 174.8 62.2C204 61 233 61 262 62.7C291 64.3 320 67.7 349 65.3C378 63 407 55 436.2 52.5C465.3 50 494.7 53 523.8 55.2C553 57.3 582 58.7 611 61.8C640 65 669 70 698 72.3C727 74.7 756 74.3 785.2 73.5C814.3 72.7 843.7 71.3 872.8 70.5C902 69.7 931 69.3 945.5 69.2L960 69L960 0L945.5 0C931 0 902 0 872.8 0C843.7 0 814.3 0 785.2 0C756 0 727 0 698 0C669 0 640 0 611 0C582 0 553 0 523.8 0C494.7 0 465.3 0 436.2 0C407 0 378 0 349 0C320 0 291 0 262 0C233 0 204 0 174.8 0C145.7 0 116.3 0 87.2 0C58 0 29 0 14.5 0L0 0Z" fill="#ffb1a3"></path><path d="M0 50L14.5 46C29 42 58 34 87.2 34.2C116.3 34.3 145.7 42.7 174.8 46.2C204 49.7 233 48.3 262 43.5C291 38.7 320 30.3 349 29.8C378 29.3 407 36.7 436.2 42C465.3 47.3 494.7 50.7 523.8 47C553 43.3 582 32.7 611 27.7C640 22.7 669 23.3 698 27.2C727 31 756 38 785.2 42.5C814.3 47 843.7 49 872.8 46.7C902 44.3 931 37.7 945.5 34.3L960 31L960 0L945.5 0C931 0 902 0 872.8 0C843.7 0 814.3 0 785.2 0C756 0 727 0 698 0C669 0 640 0 611 0C582 0 553 0 523.8 0C494.7 0 465.3 0 436.2 0C407 0 378 0 349 0C320 0 291 0 262 0C233 0 204 0 174.8 0C145.7 0 116.3 0 87.2 0C58 0 29 0 14.5 0L0 0Z" fill="#f88977"></path><path d="M0 19L14.5 21.8C29 24.7 58 30.3 87.2 33C116.3 35.7 145.7 35.3 174.8 32.2C204 29 233 23 262 20.5C291 18 320 19 349 22C378 25 407 30 436.2 30.5C465.3 31 494.7 27 523.8 27.3C553 27.7 582 32.3 611 35.2C640 38 669 39 698 38.7C727 38.3 756 36.7 785.2 34.8C814.3 33 843.7 31 872.8 31C902 31 931 33 945.5 34L960 35L960 0L945.5 0C931 0 902 0 872.8 0C843.7 0 814.3 0 785.2 0C756 0 727 0 698 0C669 0 640 0 611 0C582 0 553 0 523.8 0C494.7 0 465.3 0 436.2 0C407 0 378 0 349 0C320 0 291 0 262 0C233 0 204 0 174.8 0C145.7 0 116.3 0 87.2 0C58 0 29 0 14.5 0L0 0Z" fill="#ec5e4e"></path><path d="M0 13L14.5 14.3C29 15.7 58 18.3 87.2 17.8C116.3 17.3 145.7 13.7 174.8 14C204 14.3 233 18.7 262 20.7C291 22.7 320 22.3 349 20C378 17.7 407 13.3 436.2 12.3C465.3 11.3 494.7 13.7 523.8 14C553 14.3 582 12.7 611 12.2C640 11.7 669 12.3 698 13.3C727 14.3 756 15.7 785.2 15C814.3 14.3 843.7 11.7 872.8 12.2C902 12.7 931 16.3 945.5 18.2L960 20L960 0L945.5 0C931 0 902 0 872.8 0C843.7 0 814.3 0 785.2 0C756 0 727 0 698 0C669 0 640 0 611 0C582 0 553 0 523.8 0C494.7 0 465.3 0 436.2 0C407 0 378 0 349 0C320 0 291 0 262 0C233 0 204 0 174.8 0C145.7 0 116.3 0 87.2 0C58 0 29 0 14.5 0L0 0Z" fill="#dc2626"></path></svg>