<svg id="visual" viewBox="0 0 450 960" width="450" height="960" xmlns="http://www.w3.org/2000/svg" xmlns:xlink="http://www.w3.org/1999/xlink" version="1.1"><path d="M0 223L10.7 219.2C21.3 215.3 42.7 207.7 64.2 201.8C85.7 196 107.3 192 128.8 191.8C150.3 191.7 171.7 195.3 193 202.8C214.3 210.3 235.7 221.7 257 221.2C278.3 220.7 299.7 208.3 321.2 202.7C342.7 197 364.3 198 385.8 205.2C407.3 212.3 428.7 225.7 439.3 232.3L450 239L450 0L439.3 0C428.7 0 407.3 0 385.8 0C364.3 0 342.7 0 321.2 0C299.7 0 278.3 0 257 0C235.7 0 214.3 0 193 0C171.7 0 150.3 0 128.8 0C107.3 0 85.7 0 64.2 0C42.7 0 21.3 0 10.7 0L0 0Z" fill="#ffffff"></path><path d="M0 162L10.7 167.2C21.3 172.3 42.7 182.7 64.2 183C85.7 183.3 107.3 173.7 128.8 165.5C150.3 157.3 171.7 150.7 193 156C214.3 161.3 235.7 178.7 257 187.2C278.3 195.7 299.7 195.3 321.2 195.3C342.7 195.3 364.3 195.7 385.8 195.8C407.3 196 428.7 196 439.3 196L450 196L450 0L439.3 0C428.7 0 407.3 0 385.8 0C364.3 0 342.7 0 321.2 0C299.7 0 278.3 0 257 0C235.7 0 214.3 0 193 0C171.7 0 150.3 0 128.8 0C107.3 0 85.7 0 64.2 0C42.7 0 21.3 0 10.7 0L0 0Z" fill="#ffcec5"></path><path d="M0 121L10.7 120.5C21.3 120 42.7 119 64.2 123.3C85.7 127.7 107.3 137.3 128.8 137.7C150.3 138 171.7 129 193 124.2C214.3 119.3 235.7 118.7 257 123.5C278.3 128.3 299.7 138.7 321.2 143.3C342.7 148 364.3 147 385.8 143.2C407.3 139.3 428.7 132.7 439.3 129.3L450 126L450 0L439.3 0C428.7 0 407.3 0 385.8 0C364.3 0 342.7 0 321.2 0C299.7 0 278.3 0 257 0C235.7 0 214.3 0 193 0C171.7 0 150.3 0 128.8 0C107.3 0 85.7 0 64.2 0C42.7 0 21.3 0 10.7 0L0 0Z" fill="#fc9d8d"></path><path d="M0 78L10.7 77.3C21.3 76.7 42.7 75.3 64.2 74.8C85.7 74.3 107.3 74.7 128.8 74.3C150.3 74 171.7 73 193 72C214.3 71 235.7 70 257 72C278.3 74 299.7 79 321.2 83C342.7 87 364.3 90 385.8 89.3C407.3 88.7 428.7 84.3 439.3 82.2L450 80L450 0L439.3 0C428.7 0 407.3 0 385.8 0C364.3 0 342.7 0 321.2 0C299.7 0 278.3 0 257 0C235.7 0 214.3 0 193 0C171.7 0 150.3 0 128.8 0C107.3 0 85.7 0 64.2 0C42.7 0 21.3 0 10.7 0L0 0Z" fill="#ef6958"></path><path d="M0 50L10.7 50.2C21.3 50.3 42.7 50.7 64.2 50.7C85.7 50.7 107.3 50.3 128.8 48.7C150.3 47 171.7 44 193 44.2C214.3 44.3 235.7 47.7 257 48.7C278.3 49.7 299.7 48.3 321.2 46.8C342.7 45.3 364.3 43.7 385.8 41.2C407.3 38.7 428.7 35.3 439.3 33.7L450 32L450 0L439.3 0C428.7 0 407.3 0 385.8 0C364.3 0 342.7 0 321.2 0C299.7 0 278.3 0 257 0C235.7 0 214.3 0 193 0C171.7 0 150.3 0 128.8 0C107.3 0 85.7 0 64.2 0C42.7 0 21.3 0 10.7 0L0 0Z" fill="#dc2626"></path></svg>