<svg id="visual" viewBox="0 0 450 960" width="450" height="960" xmlns="http://www.w3.org/2000/svg" xmlns:xlink="http://www.w3.org/1999/xlink" version="1.1"><path d="M0 735L10.7 738.8C21.3 742.7 42.7 750.3 64.2 756.2C85.7 762 107.3 766 128.8 766.2C150.3 766.3 171.7 762.7 193 755.2C214.3 747.7 235.7 736.3 257 736.8C278.3 737.3 299.7 749.7 321.2 755.3C342.7 761 364.3 760 385.8 752.8C407.3 745.7 428.7 732.3 439.3 725.7L450 719L450 961L439.3 961C428.7 961 407.3 961 385.8 961C364.3 961 342.7 961 321.2 961C299.7 961 278.3 961 257 961C235.7 961 214.3 961 193 961C171.7 961 150.3 961 128.8 961C107.3 961 85.7 961 64.2 961C42.7 961 21.3 961 10.7 961L0 961Z" fill="#ffffff"></path><path d="M0 796L10.7 790.8C21.3 785.7 42.7 775.3 64.2 775C85.7 774.7 107.3 784.3 128.8 792.5C150.3 800.7 171.7 807.3 193 802C214.3 796.7 235.7 779.3 257 770.8C278.3 762.3 299.7 762.7 321.2 762.7C342.7 762.7 364.3 762.3 385.8 762.2C407.3 762 428.7 762 439.3 762L450 762L450 961L439.3 961C428.7 961 407.3 961 385.8 961C364.3 961 342.7 961 321.2 961C299.7 961 278.3 961 257 961C235.7 961 214.3 961 193 961C171.7 961 150.3 961 128.8 961C107.3 961 85.7 961 64.2 961C42.7 961 21.3 961 10.7 961L0 961Z" fill="#ffcec5"></path><path d="M0 837L10.7 837.5C21.3 838 42.7 839 64.2 834.7C85.7 830.3 107.3 820.7 128.8 820.3C150.3 820 171.7 829 193 833.8C214.3 838.7 235.7 839.3 257 834.5C278.3 829.7 299.7 819.3 321.2 814.7C342.7 810 364.3 811 385.8 814.8C407.3 818.7 428.7 825.3 439.3 828.7L450 832L450 961L439.3 961C428.7 961 407.3 961 385.8 961C364.3 961 342.7 961 321.2 961C299.7 961 278.3 961 257 961C235.7 961 214.3 961 193 961C171.7 961 150.3 961 128.8 961C107.3 961 85.7 961 64.2 961C42.7 961 21.3 961 10.7 961L0 961Z" fill="#fc9d8d"></path><path d="M0 880L10.7 880.7C21.3 881.3 42.7 882.7 64.2 883.2C85.7 883.7 107.3 883.3 128.8 883.7C150.3 884 171.7 885 193 886C214.3 887 235.7 888 257 886C278.3 884 299.7 879 321.2 875C342.7 871 364.3 868 385.8 868.7C407.3 869.3 428.7 873.7 439.3 875.8L450 878L450 961L439.3 961C428.7 961 407.3 961 385.8 961C364.3 961 342.7 961 321.2 961C299.7 961 278.3 961 257 961C235.7 961 214.3 961 193 961C171.7 961 150.3 961 128.8 961C107.3 961 85.7 961 64.2 961C42.7 961 21.3 961 10.7 961L0 961Z" fill="#ef6958"></path><path d="M0 908L10.7 907.8C21.3 907.7 42.7 907.3 64.2 907.3C85.7 907.3 107.3 907.7 128.8 909.3C150.3 911 171.7 914 193 913.8C214.3 913.7 235.7 910.3 257 909.3C278.3 908.3 299.7 909.7 321.2 911.2C342.7 912.7 364.3 914.3 385.8 916.8C407.3 919.3 428.7 922.7 439.3 924.3L450 926L450 961L439.3 961C428.7 961 407.3 961 385.8 961C364.3 961 342.7 961 321.2 961C299.7 961 278.3 961 257 961C235.7 961 214.3 961 193 961C171.7 961 150.3 961 128.8 961C107.3 961 85.7 961 64.2 961C42.7 961 21.3 961 10.7 961L0 961Z" fill="#dc2626"></path></svg>