<svg id="visual" viewBox="0 0 960 300" width="960" height="300" xmlns="http://www.w3.org/2000/svg" xmlns:xlink="http://www.w3.org/1999/xlink" version="1.1"><path d="M0 206L14.5 211.3C29 216.7 58 227.3 87.2 230.5C116.3 233.7 145.7 229.3 174.8 223C204 216.7 233 208.3 262 211.5C291 214.7 320 229.3 349 236.7C378 244 407 244 436.2 245C465.3 246 494.7 248 523.8 242.3C553 236.7 582 223.3 611 214.8C640 206.3 669 202.7 698 209C727 215.3 756 231.7 785.2 231C814.3 230.3 843.7 212.7 872.8 209.3C902 206 931 217 945.5 222.5L960 228L960 301L945.5 301C931 301 902 301 872.8 301C843.7 301 814.3 301 785.2 301C756 301 727 301 698 301C669 301 640 301 611 301C582 301 553 301 523.8 301C494.7 301 465.3 301 436.2 301C407 301 378 301 349 301C320 301 291 301 262 301C233 301 204 301 174.8 301C145.7 301 116.3 301 87.2 301C58 301 29 301 14.5 301L0 301Z" fill="#ffffff"></path><path d="M0 222L14.5 224.5C29 227 58 232 87.2 236.2C116.3 240.3 145.7 243.7 174.8 239.8C204 236 233 225 262 219.5C291 214 320 214 349 216.7C378 219.3 407 224.7 436.2 226C465.3 227.3 494.7 224.7 523.8 224.7C553 224.7 582 227.3 611 233.3C640 239.3 669 248.7 698 253C727 257.3 756 256.7 785.2 253.5C814.3 250.3 843.7 244.7 872.8 243.7C902 242.7 931 246.3 945.5 248.2L960 250L960 301L945.5 301C931 301 902 301 872.8 301C843.7 301 814.3 301 785.2 301C756 301 727 301 698 301C669 301 640 301 611 301C582 301 553 301 523.8 301C494.7 301 465.3 301 436.2 301C407 301 378 301 349 301C320 301 291 301 262 301C233 301 204 301 174.8 301C145.7 301 116.3 301 87.2 301C58 301 29 301 14.5 301L0 301Z" fill="#ffd8d0"></path><path d="M0 230L14.5 230C29 230 58 230 87.2 231.2C116.3 232.3 145.7 234.7 174.8 235.8C204 237 233 237 262 235.3C291 233.7 320 230.3 349 232.7C378 235 407 243 436.2 245.5C465.3 248 494.7 245 523.8 242.8C553 240.7 582 239.3 611 236.2C640 233 669 228 698 225.7C727 223.3 756 223.7 785.2 224.5C814.3 225.3 843.7 226.7 872.8 227.5C902 228.3 931 228.7 945.5 228.8L960 229L960 301L945.5 301C931 301 902 301 872.8 301C843.7 301 814.3 301 785.2 301C756 301 727 301 698 301C669 301 640 301 611 301C582 301 553 301 523.8 301C494.7 301 465.3 301 436.2 301C407 301 378 301 349 301C320 301 291 301 262 301C233 301 204 301 174.8 301C145.7 301 116.3 301 87.2 301C58 301 29 301 14.5 301L0 301Z" fill="#ffb1a3"></path><path d="M0 248L14.5 252C29 256 58 264 87.2 263.8C116.3 263.7 145.7 255.3 174.8 251.8C204 248.3 233 249.7 262 254.5C291 259.3 320 267.7 349 268.2C378 268.7 407 261.3 436.2 256C465.3 250.7 494.7 247.3 523.8 251C553 254.7 582 265.3 611 270.3C640 275.3 669 274.7 698 270.8C727 267 756 260 785.2 255.5C814.3 251 843.7 249 872.8 251.3C902 253.7 931 260.3 945.5 263.7L960 267L960 301L945.5 301C931 301 902 301 872.8 301C843.7 301 814.3 301 785.2 301C756 301 727 301 698 301C669 301 640 301 611 301C582 301 553 301 523.8 301C494.7 301 465.3 301 436.2 301C407 301 378 301 349 301C320 301 291 301 262 301C233 301 204 301 174.8 301C145.7 301 116.3 301 87.2 301C58 301 29 301 14.5 301L0 301Z" fill="#f88977"></path><path d="M0 279L14.5 276.2C29 273.3 58 267.7 87.2 265C116.3 262.3 145.7 262.7 174.8 265.8C204 269 233 275 262 277.5C291 280 320 279 349 276C378 273 407 268 436.2 267.5C465.3 267 494.7 271 523.8 270.7C553 270.3 582 265.7 611 262.8C640 260 669 259 698 259.3C727 259.7 756 261.3 785.2 263.2C814.3 265 843.7 267 872.8 267C902 267 931 265 945.5 264L960 263L960 301L945.5 301C931 301 902 301 872.8 301C843.7 301 814.3 301 785.2 301C756 301 727 301 698 301C669 301 640 301 611 301C582 301 553 301 523.8 301C494.7 301 465.3 301 436.2 301C407 301 378 301 349 301C320 301 291 301 262 301C233 301 204 301 174.8 301C145.7 301 116.3 301 87.2 301C58 301 29 301 14.5 301L0 301Z" fill="#ec5e4e"></path><path d="M0 285L14.5 283.7C29 282.3 58 279.7 87.2 280.2C116.3 280.7 145.7 284.3 174.8 284C204 283.7 233 279.3 262 277.3C291 275.3 320 275.7 349 278C378 280.3 407 284.7 436.2 285.7C465.3 286.7 494.7 284.3 523.8 284C553 283.7 582 285.3 611 285.8C640 286.3 669 285.7 698 284.7C727 283.7 756 282.3 785.2 283C814.3 283.7 843.7 286.3 872.8 285.8C902 285.3 931 281.7 945.5 279.8L960 278L960 301L945.5 301C931 301 902 301 872.8 301C843.7 301 814.3 301 785.2 301C756 301 727 301 698 301C669 301 640 301 611 301C582 301 553 301 523.8 301C494.7 301 465.3 301 436.2 301C407 301 378 301 349 301C320 301 291 301 262 301C233 301 204 301 174.8 301C145.7 301 116.3 301 87.2 301C58 301 29 301 14.5 301L0 301Z" fill="#dc2626"></path></svg>